<svg xmlns="http://www.w3.org/2000/svg" viewBox="0 0 213 189" width="213" height="189">
  <g>
    <path class="svg__icon" d="M106.28 48.1C78.11 48.1 49.93 48.1 21.76 48.1C17.02 48.1 13.9 44.52 15.58 40.59C16.24 39.04 17.97 37.55 19.57 36.86C35.87 29.85 52.25 23 68.61 16.11C80.17 11.23 91.75 6.39 103.28 1.43C105.42 0.52 107.26 0.51 109.41 1.42C137.6 13.34 165.82 25.18 194.03 37.04C196.43 38.05 197.9 40.38 197.7 42.85C197.5 45.31 195.66 47.36 193.08 47.91C192.34 48.06 191.56 48.09 190.8 48.09C162.63 48.1 134.45 48.1 106.28 48.1ZM106.32 14.91C100.39 14.95 95.51 19.81 95.49 25.71C95.47 31.7 100.48 36.73 106.41 36.69C112.39 36.64 117.3 31.63 117.24 25.61C117.19 19.74 112.23 14.88 106.32 14.91ZM106.13 176.4C139.2 176.4 172.27 176.39 205.33 176.43C206.67 176.43 208.12 176.61 209.33 177.14C211.72 178.2 212.9 180.93 212.38 183.5C211.91 185.87 209.77 187.85 207.29 188.14C206.38 188.24 205.45 188.2 204.54 188.2C139.09 188.2 73.64 188.2 8.19 188.2C7.35 188.2 6.5 188.24 5.67 188.16C2.58 187.88 0.28 185.4 0.24 182.35C0.2 179.32 2.46 176.77 5.55 176.43C6.31 176.35 7.08 176.4 7.84 176.4C40.61 176.4 73.37 176.4 106.13 176.4ZM106.11 168.49C78.02 168.49 49.93 168.49 21.85 168.48C17.68 168.48 15.28 166.26 15.32 162.52C15.35 159.61 17.27 157.42 20.18 157.06C21.01 156.96 21.86 156.99 22.7 156.99C78.42 156.99 134.13 156.99 189.85 156.99C190.54 156.99 191.23 156.98 191.91 157.01C195.33 157.21 197.5 159.49 197.41 162.8C197.32 166.13 195.1 168.45 191.75 168.46C179.5 168.5 167.26 168.47 155.01 168.47C138.71 168.47 122.41 168.47 106.11 168.47C106.11 168.48 106.11 168.48 106.11 168.49ZM52.85 103.77C52.85 115.96 52.85 128.14 52.85 140.32C52.84 145.67 51 147.5 45.68 147.51C42.46 147.51 39.25 147.57 36.04 147.51C31.98 147.45 29.79 145.26 29.79 141.21C29.77 116.15 29.77 91.08 29.79 66.02C29.79 61.98 32.04 59.82 36.09 59.8C39.61 59.78 43.12 59.79 46.64 59.81C50.69 59.83 52.79 61.8 52.8 65.84C52.84 75.88 52.77 85.92 52.74 95.96C52.74 98.56 52.74 101.17 52.74 103.77C52.78 103.77 52.81 103.77 52.85 103.77ZM159.9 103.55C159.9 91.51 159.9 79.47 159.9 67.43C159.9 66.59 159.88 65.74 159.96 64.9C160.28 61.79 162.29 59.88 165.42 59.82C168.86 59.76 172.31 59.8 175.75 59.8C181.15 59.8 182.95 61.57 182.95 66.91C182.94 80.79 182.91 94.67 182.91 108.55C182.91 119.21 182.95 129.87 182.95 140.53C182.95 145.59 181.03 147.51 176.04 147.51C172.75 147.51 169.46 147.53 166.17 147.5C162.09 147.46 159.93 145.51 159.91 141.5C159.84 128.85 159.89 116.2 159.89 103.55C159.89 103.55 159.9 103.55 159.9 103.55ZM73.2 103.51C73.2 91.25 73.2 78.98 73.2 66.72C73.2 61.69 75.11 59.8 80.13 59.8C83.5 59.8 86.86 59.78 90.23 59.81C94.15 59.85 96.19 61.95 96.19 66.05C96.18 79.46 96.11 92.87 96.11 106.29C96.11 117.78 96.18 129.28 96.2 140.77C96.21 145.5 94.24 147.47 89.52 147.5C86.08 147.52 82.63 147.58 79.19 147.49C75.33 147.38 73.22 145.25 73.21 141.45C73.18 128.8 73.2 116.15 73.2 103.51ZM139.53 103.72C139.53 116.06 139.53 128.4 139.53 140.74C139.52 145.56 137.69 147.45 132.92 147.5C129.47 147.54 126.03 147.54 122.59 147.49C118.79 147.42 116.55 145.25 116.54 141.48C116.52 116.19 116.52 90.9 116.55 65.6C116.55 62.09 118.82 59.87 122.31 59.82C125.98 59.77 129.65 59.79 133.32 59.8C137.46 59.82 139.51 61.84 139.52 66.02C139.54 78.59 139.53 91.15 139.53 103.72Z" />
  </g>
</svg>