<svg className="icon" xmlns="http://www.w3.org/2000/svg" viewBox="0 0 55 56" width="55" height="56">
	<g>
		<path d="M41.64 55.62C32.19 55.62 22.73 55.62 13.28 55.62C13.05 55.59 12.82 55.56 12.59 55.53C9.48 55.11 6.74 53.87 4.47 51.7C1.69 49.03 0.21 45.75 0.02 41.91C-0.05 40.35 0.01 38.77 0.01 37.2C0.01 30.49 0 23.77 0.01 17.05C0.01 15.38 -0.06 13.71 0.29 12.05C0.86 9.39 2.04 7.06 3.91 5.08C5.89 3 8.28 1.61 11.09 0.99C11.79 0.83 12.5 0.74 13.2 0.61C22.71 0.61 32.21 0.61 41.72 0.61C42.3 0.7 42.88 0.75 43.45 0.87C50.22 2.29 54.92 7.97 54.99 14.84C55.01 16.75 54.99 18.66 54.99 20.57C54.99 27.3 54.98 34.03 55 40.76C55 42.83 54.74 44.84 53.92 46.74C52 51.19 48.69 54.04 43.99 55.22C43.22 55.42 42.42 55.49 41.64 55.62ZM27.58 5.33C27.58 5.33 27.58 5.33 27.58 5.33C23.21 5.33 18.84 5.33 14.47 5.32C13.02 5.32 11.62 5.56 10.32 6.2C6.84 7.92 4.91 10.72 4.74 14.63C4.65 16.94 4.73 19.26 4.72 21.58C4.72 28.18 4.69 34.78 4.73 41.38C4.75 44.92 6.35 47.64 9.33 49.54C10.93 50.57 12.72 50.97 14.63 50.96C16.88 50.94 19.13 50.96 21.38 50.96C23.41 50.96 25.43 50.95 27.46 50.95C29.42 50.95 31.39 50.96 33.35 50.96C35.34 50.96 37.33 50.95 39.32 50.96C40.86 50.97 42.39 50.93 43.89 50.43C47.35 49.25 50.03 45.89 50.27 42.24C50.37 40.62 50.33 38.99 50.33 37.37C50.34 33.85 50.32 30.33 50.32 26.81C50.32 23.27 50.33 19.74 50.34 16.2C50.34 14.71 50.3 13.23 49.8 11.79C48.54 8.05 44.92 5.36 40.97 5.34C36.51 5.31 32.04 5.33 27.58 5.33ZM27.54 41.82C19.98 41.83 13.85 35.71 13.83 28.13C13.82 20.62 19.99 14.46 27.53 14.45C35.03 14.44 41.2 20.58 41.2 28.05C41.2 35.7 35.14 41.81 27.54 41.82ZM27.56 37.64C32.73 37.69 37.18 33.29 37.03 27.87C36.9 23 32.86 18.57 27.33 18.62C22.26 18.67 17.99 23.02 18.01 28.18C18.03 33.42 22.32 37.67 27.56 37.64ZM45.86 12.9C45.87 14.66 44.43 16.08 42.66 16.07C40.95 16.07 39.57 14.66 39.56 12.93C39.56 11.17 40.97 9.73 42.67 9.75C44.44 9.76 45.85 11.16 45.86 12.9Z" />
	</g>
</svg>