<svg className="icon" xmlns="http://www.w3.org/2000/svg" viewBox="0 0 55 56" width="55" height="56">
	<g>
		<path d="M0.03 27.9C0.03 20.38 0.07 12.86 0 5.34C-0.02 2.48 2.13 0.72 4.59 0.61C4.78 0.61 4.97 0.61 5.16 0.61C20.17 0.61 35.18 0.61 50.18 0.62C50.77 0.62 51.38 0.67 51.95 0.82C53.86 1.34 54.99 2.94 54.99 5.07C55 12.06 54.99 19.06 54.99 26.05C54.99 34.19 55 42.33 54.98 50.47C54.98 51.08 54.92 51.72 54.75 52.3C54.15 54.37 52.49 55.6 50.35 55.6C42.74 55.61 35.13 55.6 27.52 55.6C20.07 55.6 12.63 55.6 5.19 55.6C2.07 55.6 0.03 53.56 0.03 50.46C0.03 42.94 0.03 35.42 0.03 27.9ZM27.52 5.19C20.19 5.19 12.87 5.19 5.54 5.19C4.61 5.19 4.61 5.19 4.61 6.13C4.61 20.76 4.61 35.39 4.61 50.03C4.61 51.03 4.61 51.03 5.6 51.03C20.25 51.03 34.9 51.03 49.55 51.05C50.22 51.05 50.44 50.89 50.44 50.18C50.42 35.47 50.42 20.77 50.44 6.06C50.44 5.38 50.27 5.17 49.57 5.18C42.22 5.2 34.87 5.19 27.52 5.19ZM45.82 46.42C43.2 46.42 40.63 46.42 37.97 46.42C37.97 46.15 37.97 45.9 37.97 45.65C37.97 41.45 37.99 37.25 37.95 33.05C37.95 32.17 37.86 31.27 37.63 30.44C36.88 27.8 33.94 26.77 31.67 28.34C30.35 29.25 29.67 30.54 29.67 32.17C29.67 36.6 29.66 41.04 29.66 45.48C29.66 45.77 29.66 46.05 29.66 46.39C27.05 46.39 24.47 46.39 21.84 46.39C21.84 38.28 21.84 30.16 21.84 22C24.43 22 27.01 22 29.66 22C29.66 23.06 29.66 24.09 29.66 25.31C29.87 25.05 29.98 24.94 30.07 24.82C32.2 21.84 35.15 20.95 38.63 21.55C41.94 22.13 44.1 24.14 45.1 27.31C45.49 28.55 45.77 29.87 45.79 31.16C45.87 36.22 45.82 41.28 45.82 46.42ZM16.99 46.43C14.38 46.43 11.83 46.43 9.24 46.43C9.24 38.28 9.24 30.16 9.24 21.99C11.8 21.99 14.37 21.99 16.99 21.99C16.99 30.11 16.99 38.23 16.99 46.43ZM13.39 18.23C10.96 18.23 9.2 16.46 9.19 14.01C9.19 11.56 10.97 9.78 13.45 9.78C15.87 9.77 17.63 11.54 17.64 14C17.65 16.45 15.87 18.22 13.39 18.23Z" />
	</g>
</svg>