<svg xmlns="http://www.w3.org/2000/svg" viewBox="0 0 152 203" width="152" height="203">
	<g className="svg__icon">
		<path d="M108.3 129.06C103.93 132.46 99.32 135.22 94.29 137.28C93.56 137.58 93.49 138.02 93.54 138.69C93.94 145.14 93.5 151.55 92.66 157.93C92.61 158.3 92.16 158.83 91.82 158.9C87.49 159.77 83.15 160.57 78.81 161.4C78.13 161.53 77.67 161.31 77.32 160.68C75.83 158.04 74.28 155.43 72.79 152.79C72.6 152.46 72.51 152.03 72.51 151.64C72.5 141.64 72.5 131.65 72.5 121.65C72.5 121.5 72.56 121.34 72.6 121.11C84.91 120.19 95.06 115.07 102.65 105.32C108.68 97.58 111.41 88.71 110.97 78.93C110.08 58.95 94.11 41.8 72.51 40.58C72.51 39.72 72.51 38.85 72.51 37.97C72.5 28.38 72.49 18.79 72.52 9.2C72.53 8.55 72.7 7.83 73.02 7.26C74.25 5.08 75.54 2.93 76.88 0.81C77.07 0.49 77.67 0.18 78.02 0.24C82.29 0.96 86.55 1.76 90.82 2.5C91.73 2.66 92.09 3.1 92.21 3.99C93.04 10.31 93.41 16.64 93.11 23C93.08 23.68 93.27 23.99 93.91 24.25C98.66 26.22 103.1 28.74 107.19 31.83C107.79 32.28 108.18 32.26 108.78 31.87C114 28.41 119.6 25.69 125.33 23.19C126.32 22.76 127.04 22.77 127.76 23.63C130.69 27.14 133.65 30.63 136.62 34.11C137.19 34.78 137.12 35.3 136.66 36.02C133.3 41.34 129.54 46.36 125.27 50.99C124.69 51.63 124.58 52.08 124.99 52.87C127.37 57.36 129.06 62.11 130.22 67.04C130.36 67.66 130.57 67.88 131.21 67.96C137.53 68.79 143.74 70.13 149.84 72.01C150.82 72.31 151.25 72.74 151.24 73.75C151.22 78.4 151.23 83.05 151.26 87.7C151.27 88.45 150.95 88.8 150.27 88.96C145.2 90.18 140.13 91.43 135.04 92.62C133.83 92.91 132.55 92.94 131.33 93.22C130.94 93.31 130.44 93.78 130.35 94.15C129.18 99.13 127.51 103.92 125.17 108.47C124.8 109.19 124.82 109.61 125.41 110.23C129.79 114.87 133.62 119.94 137.06 125.3C137.47 125.93 137.55 126.4 137.05 127C134 130.62 130.96 134.25 127.95 137.9C127.41 138.55 126.93 138.58 126.17 138.27C119.97 135.73 114.01 132.71 108.3 129.06ZM66.33 0.77C66.33 3.85 66.33 6.64 66.33 9.5C64.69 9.6 63.08 9.64 61.48 9.81C43.08 11.71 28.73 20.37 18.51 35.67C11.8 45.69 8.82 56.87 9.33 68.89C9.74 78.7 13.02 87.63 18.42 95.78C20.25 98.54 22.27 101.19 24.4 103.74C28.47 108.63 30.9 114.33 32.88 120.26C35.19 127.2 36.23 134.39 36.86 141.65C37.13 144.71 37.52 147.76 37.78 150.82C37.86 151.73 38.24 151.95 39.07 151.97C47.56 152.21 56.05 152.48 64.53 152.74C65.09 152.76 65.66 152.74 66.29 152.74C66.29 155.67 66.29 158.47 66.29 161.3C63.59 161.3 60.93 161.36 58.26 161.28C52.09 161.11 45.92 160.9 39.76 160.66C38.22 160.6 36.67 160.42 35.16 160.15C32.51 159.67 30.68 158.02 30.07 155.5C29.34 152.45 28.86 149.32 28.58 146.2C27.76 137.25 26.78 128.35 23.51 119.87C21.74 115.26 19.28 111.12 16.09 107.3C9.67 99.64 4.95 91.02 2.46 81.29C-0.74 68.77 0.01 56.39 4.46 44.33C11.15 26.22 23.6 13.42 41.38 5.82C47.62 3.16 54.18 1.69 60.94 1.12C62.7 0.97 64.46 0.89 66.33 0.77ZM46.18 62.18C47.57 60.75 48.82 59.48 50.04 58.19C50.49 57.71 50.9 57.74 51.42 58.06C53.16 59.1 54.94 60.06 56.64 61.16C57.31 61.6 57.75 61.67 58.46 61.25C60.03 60.34 61.68 59.56 63.23 58.75C63.52 56.45 63.85 54.09 64.1 51.73C64.17 50.99 64.56 50.77 65.18 50.7C66.55 50.53 67.92 50.4 69.29 50.19C70.18 50.06 70.64 50.41 70.91 51.22C71.54 53.09 72.27 54.94 72.83 56.83C73.04 57.52 73.33 57.8 74.02 57.93C75.57 58.22 77.09 58.66 78.64 58.94C79.05 59.02 79.65 58.88 79.95 58.61C81.52 57.21 83.03 55.74 84.54 54.27C85.03 53.79 85.46 53.74 86.02 54.12C87.23 54.94 88.45 55.75 89.69 56.51C90.33 56.91 90.4 57.41 90.16 58.05C89.41 60.01 88.63 61.96 87.94 63.94C87.82 64.29 87.91 64.86 88.12 65.17C89.09 66.56 90.11 67.92 91.17 69.25C91.38 69.52 91.87 69.72 92.22 69.7C94.36 69.61 96.51 69.47 98.65 69.31C99.35 69.25 99.68 69.53 99.86 70.17C100.25 71.57 100.65 72.97 101.11 74.35C101.35 75.08 101.09 75.46 100.48 75.79C98.66 76.78 96.88 77.83 95.05 78.79C94.47 79.09 94.26 79.35 94.27 80.05C94.29 81.58 94.19 83.12 93.99 84.64C93.88 85.42 94.12 85.77 94.73 86.19C96.41 87.32 98.02 88.56 99.66 89.74C100.24 90.16 100.39 90.6 100.07 91.28C99.46 92.56 98.89 93.85 98.38 95.17C98.06 95.99 97.55 96.12 96.76 95.95C94.74 95.53 92.71 95.14 90.68 94.8C90.33 94.74 89.83 94.88 89.59 95.12C88.39 96.32 87.22 97.55 86.1 98.83C85.85 99.12 85.7 99.67 85.79 100.04C86.24 102.05 86.78 104.03 87.29 106.03C87.48 106.74 87.33 107.25 86.58 107.58C85.66 107.99 84.81 108.57 83.88 108.97C81.46 110 82.24 110.28 80.32 108.19C79.23 107 78.24 105.7 77.31 104.38C76.89 103.78 76.51 103.71 75.82 103.82C74.26 104.07 72.68 104.22 71.11 104.32C70.49 104.36 70.23 104.56 69.97 105.12C69.08 107.07 68.12 108.99 67.12 110.88C66.96 111.18 66.35 111.46 66.01 111.4C64.49 111.14 62.99 110.8 61.52 110.36C61.15 110.25 60.67 109.69 60.66 109.33C60.6 107.27 60.62 105.21 60.72 103.15C60.76 102.4 60.59 102.02 59.92 101.63C58.55 100.84 57.24 99.95 55.98 99.01C55.46 98.63 55.14 98.67 54.6 98.93C52.69 99.82 50.74 100.62 48.82 101.49C48.18 101.79 47.76 101.64 47.37 101.11C46.56 100 45.76 98.87 44.88 97.81C44.26 97.07 44.38 96.47 44.97 95.81C46.29 94.33 47.56 92.8 48.92 91.35C49.38 90.86 49.43 90.51 49.21 89.88C48.67 88.36 48.3 86.79 47.78 85.27C47.66 84.91 47.26 84.52 46.91 84.4C44.86 83.75 42.79 83.21 40.75 82.54C40.39 82.42 39.95 81.83 39.95 81.46C39.96 79.89 40.08 78.31 40.26 76.75C40.3 76.44 40.73 76 41.05 75.94C42.99 75.55 44.95 75.16 46.92 74.96C47.91 74.85 48.36 74.53 48.67 73.57C49.09 72.23 49.68 70.92 50.37 69.7C50.77 68.99 50.63 68.6 50.21 68.01C48.86 66.15 47.58 64.23 46.18 62.18ZM70.84 97.35C79.93 97.36 87.3 90.07 87.33 81.07C87.36 72 79.99 64.68 70.83 64.68C61.75 64.68 54.42 71.98 54.42 81.02C54.42 90.06 61.75 97.35 70.84 97.35ZM66.44 175.47C56.34 175.07 46.31 174.69 36.29 174.28C33.31 174.16 31.04 171.6 31.15 168.6C31.26 165.66 33.64 163.3 36.6 163.36C39.44 163.42 42.27 163.67 45.11 163.78C49.33 163.94 53.55 164.15 57.77 164.17C64.63 164.21 71.49 164.19 78.35 164.06C83.51 163.96 88.66 163.62 93.81 163.44C95.14 163.39 96.53 163.31 97.78 163.64C100.41 164.33 101.87 166.89 101.51 169.68C101.19 172.14 99 174.18 96.45 174.28C86.43 174.69 76.4 175.08 66.44 175.47ZM66.43 188.71C58.34 188.71 50.25 188.73 42.16 188.69C41.01 188.68 39.77 188.58 38.72 188.15C36.28 187.17 35.08 184.66 35.61 182.1C36.12 179.58 38.23 177.77 40.88 177.72C43.97 177.67 47.06 177.72 50.15 177.72C63.52 177.71 76.89 177.7 90.26 177.7C91.12 177.7 91.98 177.69 92.81 177.84C95.49 178.35 97.45 180.85 97.27 183.42C97.07 186.34 94.93 188.6 92.03 188.64C84.47 188.74 76.91 188.72 69.35 188.75C68.38 188.75 67.4 188.75 66.43 188.75C66.43 188.74 66.43 188.72 66.43 188.71ZM33.91 46.71C34.85 45.62 35.82 44.48 36.8 43.33C36.79 43.29 36.8 43.2 36.77 43.13C36.44 42.06 36.39 40.69 35.68 39.99C34.97 39.3 33.6 39.25 32.51 38.98C31.72 38.78 31.31 38.4 31.45 37.54C31.52 37.1 31.5 36.65 31.49 36.21C31.48 35.41 31.75 34.88 32.64 34.82C32.84 34.81 33.04 34.67 33.23 34.68C35.57 34.85 36.82 33.63 37.3 31.47C37.38 31.15 37.36 30.71 37.2 30.44C36.69 29.57 36.11 28.74 35.52 27.92C35.11 27.37 35.14 26.94 35.64 26.45C37.93 24.18 37.08 24.19 39.71 25.83C41 26.63 41.88 26.69 43.25 25.99C44.47 25.37 44.92 24.71 44.89 23.46C44.88 22.87 44.93 22.22 45.17 21.68C45.36 21.26 45.82 20.75 46.25 20.66C48.79 20.09 48.98 20.08 49.6 22.54C50.04 24.29 51.02 24.82 52.59 25.17C53.61 25.39 54.26 25.27 54.91 24.49C55.39 23.9 55.93 23.31 56.55 22.88C56.88 22.66 57.56 22.61 57.89 22.8C60.33 24.28 60.3 24.3 59.21 27.01C59 27.55 58.54 28.28 58.72 28.65C59.23 29.64 60 30.49 60.73 31.36C60.84 31.49 61.26 31.4 61.54 31.38C62.14 31.33 62.75 31.22 63.36 31.22C65.61 31.24 65.1 30.74 65.96 33.12C66.37 34.27 66.11 34.93 65.03 35.39C64.74 35.52 64.49 35.78 64.19 35.87C62.63 36.32 62.17 37.31 62.21 38.92C62.23 40.04 62.29 40.86 63.4 41.33C63.59 41.4 63.74 41.55 63.91 41.66C65.99 43.15 66.12 43.88 64.59 45.95C64.43 46.17 63.97 46.32 63.68 46.28C62.44 46.12 61.21 45.88 59.9 45.66C59.14 46.46 58.31 47.33 57.41 48.27C57.67 49.3 57.97 50.42 58.26 51.54C58.45 52.28 58.33 52.8 57.51 53.19C54.72 54.51 55.44 54.65 53.66 52.38C52.69 51.14 51.87 50.74 50.3 51C49.08 51.21 48.26 51.43 48.02 52.72C48 52.83 47.91 52.93 47.86 53.04C46.67 55.47 46.62 55.48 44.03 54.66C43.46 54.48 43.1 54.26 43.18 53.59C43.22 53.19 43.12 52.78 43.18 52.38C43.47 50.62 43.03 49.36 41.24 48.56C40.4 48.18 39.8 47.76 39.01 48.44C38.98 48.46 38.93 48.46 38.9 48.48C35.85 49.95 35.61 49.87 33.91 46.71ZM48.77 45.57C53.2 45.58 56.71 42.14 56.71 37.8C56.72 33.43 53.22 29.97 48.82 29.98C44.5 29.98 41.01 33.45 41 37.75C40.99 42.07 44.46 45.56 48.77 45.57ZM66.42 191.74C72.14 191.59 77.87 191.42 83.6 191.31C84.69 191.29 85.8 191.4 86.86 191.64C88.64 192.05 89.08 193.22 88.03 194.71C85.9 197.76 82.98 199.79 79.48 201.06C76.5 202.14 73.4 202.53 70.28 202.63C65.08 202.8 59.88 202.9 54.79 201.53C51.03 200.52 47.85 198.61 45.36 195.62C44.7 194.83 43.85 194 44.28 192.83C44.71 191.64 45.89 191.49 46.92 191.46C49.72 191.38 52.53 191.43 55.33 191.43C59.02 191.43 62.72 191.43 66.42 191.43C66.42 191.54 66.42 191.64 66.42 191.74ZM70.58 92.22C64.39 92.2 59.43 87.23 59.48 81.1C59.53 74.86 64.46 70.06 70.8 70.08C76.84 70.11 81.75 75.12 81.73 81.26C81.72 87.3 76.7 92.24 70.58 92.22ZM70.55 73.29C66.33 73.28 62.71 76.91 62.71 81.14C62.71 85.42 66.34 89.03 70.63 89.01C74.9 88.98 78.4 85.49 78.47 81.17C78.54 76.92 74.89 73.3 70.55 73.29Z" />
	</g>
</svg>