<svg xmlns="http://www.w3.org/2000/svg" viewBox="0 0 162 215" width="162" height="215">
	<g class="svg__icon">
		<path d="M113.73 214.73C107.08 197.34 100.45 179.94 93.8 162.54C93.18 160.91 92.5 159.3 91.02 157.8C91.02 176.04 91.02 194.28 91.02 212.83C85.72 212.83 80.93 212.83 75.7 212.83C75.7 194.19 75.7 175.59 75.7 156.99C75.31 156.89 74.93 156.8 74.54 156.7C67.31 175.74 60.09 194.78 52.68 214.3C47.91 212.5 43.43 210.81 38.54 208.97C42.09 199.54 45.53 190.34 49 181.16C54.9 165.55 60.79 149.95 66.77 134.37C67.71 131.91 67.91 129.96 66.39 127.42C62.01 120.08 63.64 110.9 69.83 105.36C75.8 100 85.34 99.38 91.89 103.92C98.77 108.68 101.17 117.31 98.23 125.43C97.6 127.15 97.64 129.52 98.28 131.25C107.35 155.61 116.59 179.91 125.78 204.23C126.36 205.78 126.89 207.35 127.54 209.17C123.12 211.07 118.84 212.9 114.56 214.73C114.28 214.73 114 214.73 113.73 214.73ZM94.69 29.1C78.98 20.42 63.31 11.69 47.53 3.14C44.93 1.73 41.88 1.12 39.35 0.24C36.21 0.93 33.54 1.19 31.1 2.09C13.04 8.8 4.11 22.9 1.06 41.01C-1.11 53.93 2.94 60.7 14.48 66.66C29.67 74.51 45.07 82 59.97 90.36C67.78 94.75 74.95 94.19 82.04 90.15C96.38 81.99 104.54 69.22 106.96 53.08C108.7 41.47 104.8 34.68 94.69 29.1ZM25.37 53.28C16.06 56.84 8.68 51.75 9.64 41.84C10.84 29.29 17.23 19.81 28.83 14.53C37.84 10.44 44.71 15.24 44.73 25.14C44.75 35.99 35.53 49.39 25.37 53.28ZM93.08 94.68C105.95 84.32 111.61 70.37 116.22 55.06C121.67 58.17 126.9 61.15 132.12 64.14C141.37 69.43 141.37 69.5 139.78 80.21C137.8 93.55 130.32 102.14 117.47 106C116.17 106.38 114.38 106.3 113.2 105.69C106.56 102.22 100.03 98.52 93.08 94.68ZM134.41 109.02C142.53 101.53 147.41 92.77 150.5 82.56C153.82 84.8 156.86 86.7 159.71 88.87C160.57 89.52 161.14 90.84 161.4 91.96C163.53 101.22 156.24 112.5 146.92 114.24C145.71 114.46 144.23 113.89 143.03 113.35C140.26 112.1 137.58 110.63 134.41 109.02Z" />
	</g>
</svg>